<svg xmlns="http://www.w3.org/2000/svg" width="175.132" height="52" viewBox="0 0 175.132 52">
  <g id="Group_9" data-name="Group 9" transform="translate(-120 -24)">
    <g id="LOGO" transform="translate(120 24)">
      <path id="Vector" d="M27.541,0a11.7,11.7,0,0,0-7.876,3.015A11.575,11.575,0,0,0,11.837,0,11.837,11.837,0,0,0,0,11.823v7.866a3.934,3.934,0,0,0,3.961,3.862,3.892,3.892,0,0,0,3.914-3.862V11.823a3.983,3.983,0,0,1,3.961-3.957A3.9,3.9,0,0,1,15.7,11.823v7.866a3.934,3.934,0,0,0,3.961,3.862,3.892,3.892,0,0,0,3.914-3.862V11.823a3.961,3.961,0,0,1,7.923,0v7.866a3.892,3.892,0,0,0,3.914,3.862,3.934,3.934,0,0,0,3.961-3.862V11.823A11.868,11.868,0,0,0,27.541,0ZM19.666,28.026a3.909,3.909,0,1,0,3.914,3.909A3.9,3.9,0,0,0,19.666,28.026Z" transform="translate(6.563 9.592)" fill="#ff5a5a"/>
      <rect id="Rectangle_51" data-name="Rectangle 51" width="52" height="52" fill="none"/>
    </g>
    <path id="Mango" d="M21.556,17a8.426,8.426,0,0,0-5.678,2.176A8.339,8.339,0,0,0,10.234,17,8.539,8.539,0,0,0,1.7,25.534v5.678A2.838,2.838,0,0,0,4.556,34a2.808,2.808,0,0,0,2.822-2.788V25.534a2.873,2.873,0,0,1,2.856-2.856,2.815,2.815,0,0,1,2.788,2.856v5.678A2.838,2.838,0,0,0,15.878,34,2.808,2.808,0,0,0,18.7,31.212V25.534a2.856,2.856,0,1,1,5.712,0v5.678A2.808,2.808,0,0,0,27.234,34a2.838,2.838,0,0,0,2.856-2.788V25.534A8.561,8.561,0,0,0,21.556,17ZM15.878,37.23A2.822,2.822,0,1,0,18.7,40.052,2.815,2.815,0,0,0,15.878,37.23ZM50.524,25.5H50.49V19.822A2.837,2.837,0,0,0,47.668,17a2.666,2.666,0,0,0-2.006.85A8.817,8.817,0,0,0,42.024,17a8.51,8.51,0,0,0-8.534,8.5v.034a8.5,8.5,0,0,0,3.536,6.9l.578.374a2.856,2.856,0,0,0,3.808-1.36,2.726,2.726,0,0,0-.442-3.094c-.238-.238-1.054-.884-1.224-1.122a2.8,2.8,0,0,1-.578-1.734,2.838,2.838,0,0,1,2.856-2.788A2.8,2.8,0,0,1,44.812,25.5h.034v5.678a2.822,2.822,0,1,0,5.644,0V25.534A.033.033,0,0,1,50.524,25.5Zm11.9-8.5a8.5,8.5,0,0,0-8.5,8.5v5.678A2.844,2.844,0,0,0,56.78,34,2.815,2.815,0,0,0,59.6,31.178V25.5a2.815,2.815,0,0,1,2.822-2.822A2.844,2.844,0,0,1,65.28,25.5v5.678a2.822,2.822,0,1,0,5.644,0V25.5A8.5,8.5,0,0,0,62.424,17ZM91.7,40.97c0-3.23-.034-4.964-.068-15.5a8.466,8.466,0,0,0-16.932,0V25.5A8.5,8.5,0,0,0,83.164,34a8.686,8.686,0,0,0,2.856-.51l.034,7.48a2.837,2.837,0,0,1-2.822,2.822,2.533,2.533,0,0,1-2.788-2.584,2.648,2.648,0,0,0-2.856-2.754,2.9,2.9,0,0,0-2.822,2.754A8.468,8.468,0,0,0,91.7,40.97ZM83.164,28.322A2.822,2.822,0,1,1,85.986,25.5,2.815,2.815,0,0,1,83.164,28.322ZM112.132,25.5A8.517,8.517,0,1,0,103.6,34,8.554,8.554,0,0,0,112.132,25.5ZM103.6,28.424a2.924,2.924,0,1,1,0-5.848,2.925,2.925,0,1,1,0,5.848Z" transform="translate(183 24)" fill="#020303"/>
  </g>
</svg>
